<svg xmlns="http://www.w3.org/2000/svg" viewBox="0 0 32 32" fill="none">
  <rect width="32" height="32" rx="9" fill="#1c1917"/>
  <svg x="6" y="6" width="20" height="20" viewBox="0 0 24 24" fill="none">
    <path
      d="M4 14a1 1 0 0 1-.78-1.63l9.9-10.2a.5.5 0 0 1 .86.46l-1.92 6.02A1 1 0 0 0 13 10h7a1 1 0 0 1 .78 1.63l-9.9 10.2a.5.5 0 0 1-.86-.46l1.92-6.02A1 1 0 0 0 11 14z"
      fill="#fafaf9"
      stroke="#fafaf9"
      stroke-linecap="round"
      stroke-linejoin="round"
      stroke-width="2.4"
    />
  </svg>
</svg>
